<mxfile host="app.diagrams.net" modified="2024-07-02T09:14:55.479Z" agent="Mozilla/5.0 (Windows NT 10.0; Win64; x64) AppleWebKit/537.36 (KHTML, like Gecko) Chrome/126.0.0.0 Safari/537.36" etag="n7ShO08MIRlSN_7itQXM" version="24.6.4" type="device">
  <diagram name="Page-1" id="9AzzWPS5db-NXkA7KzkK">
    <mxGraphModel dx="3001" dy="2727" grid="1" gridSize="10" guides="1" tooltips="1" connect="1" arrows="1" fold="1" page="1" pageScale="1" pageWidth="827" pageHeight="1169" math="0" shadow="0">
      <root>
        <mxCell id="0" />
        <mxCell id="1" parent="0" />
        <mxCell id="7LeRTyqalhS2gj-OQN5v-1" value="" style="rounded=0;whiteSpace=wrap;html=1;" vertex="1" parent="1">
          <mxGeometry x="-133" y="-1086.5" width="960" height="540" as="geometry" />
        </mxCell>
        <mxCell id="7LeRTyqalhS2gj-OQN5v-30" value="" style="rounded=0;whiteSpace=wrap;html=1;fillColor=#CCCCCC;" vertex="1" parent="1">
          <mxGeometry x="140" y="-1086.5" width="420" height="536.5" as="geometry" />
        </mxCell>
        <mxCell id="7LeRTyqalhS2gj-OQN5v-2" value="&lt;font style=&quot;font-size: 25px;&quot;&gt;SNEK&lt;/font&gt;" style="rounded=0;whiteSpace=wrap;html=1;" vertex="1" parent="1">
          <mxGeometry x="232" y="-1006.5" width="230" height="60" as="geometry" />
        </mxCell>
        <mxCell id="7LeRTyqalhS2gj-OQN5v-3" value="Start Game" style="rounded=0;whiteSpace=wrap;html=1;" vertex="1" parent="1">
          <mxGeometry x="287" y="-896.5" width="120" height="40" as="geometry" />
        </mxCell>
        <mxCell id="7LeRTyqalhS2gj-OQN5v-4" value="Music" style="rounded=0;whiteSpace=wrap;html=1;" vertex="1" parent="1">
          <mxGeometry x="197" y="-736.5" width="70" height="30" as="geometry" />
        </mxCell>
        <mxCell id="7LeRTyqalhS2gj-OQN5v-5" value="" style="endArrow=none;html=1;rounded=0;" edge="1" parent="1">
          <mxGeometry width="50" height="50" relative="1" as="geometry">
            <mxPoint x="287" y="-722" as="sourcePoint" />
            <mxPoint x="457" y="-722" as="targetPoint" />
          </mxGeometry>
        </mxCell>
        <mxCell id="7LeRTyqalhS2gj-OQN5v-6" value="SFX" style="rounded=0;whiteSpace=wrap;html=1;" vertex="1" parent="1">
          <mxGeometry x="197" y="-686.5" width="70" height="30" as="geometry" />
        </mxCell>
        <mxCell id="7LeRTyqalhS2gj-OQN5v-7" value="" style="endArrow=none;html=1;rounded=0;" edge="1" parent="1">
          <mxGeometry width="50" height="50" relative="1" as="geometry">
            <mxPoint x="287" y="-672" as="sourcePoint" />
            <mxPoint x="457" y="-672" as="targetPoint" />
          </mxGeometry>
        </mxCell>
        <mxCell id="7LeRTyqalhS2gj-OQN5v-8" value="" style="curved=1;endArrow=classic;html=1;rounded=0;" edge="1" parent="1">
          <mxGeometry width="50" height="50" relative="1" as="geometry">
            <mxPoint x="-49" y="-496.5" as="sourcePoint" />
            <mxPoint x="68" y="-1103.5" as="targetPoint" />
            <Array as="points">
              <mxPoint x="37" y="-556.5" />
              <mxPoint x="-83" y="-930.5" />
            </Array>
          </mxGeometry>
        </mxCell>
        <mxCell id="7LeRTyqalhS2gj-OQN5v-9" value="" style="curved=1;endArrow=classic;html=1;rounded=0;" edge="1" parent="1">
          <mxGeometry width="50" height="50" relative="1" as="geometry">
            <mxPoint x="591" y="-513" as="sourcePoint" />
            <mxPoint x="707" y="-1120" as="targetPoint" />
            <Array as="points">
              <mxPoint x="687" y="-666.5" />
              <mxPoint x="557" y="-947" />
            </Array>
          </mxGeometry>
        </mxCell>
        <mxCell id="7LeRTyqalhS2gj-OQN5v-11" value="" style="rounded=0;whiteSpace=wrap;html=1;" vertex="1" parent="1">
          <mxGeometry x="-133" y="355" width="960" height="540" as="geometry" />
        </mxCell>
        <mxCell id="7LeRTyqalhS2gj-OQN5v-12" value="&lt;font style=&quot;font-size: 32px;&quot;&gt;Start Game Layout&lt;/font&gt;" style="text;html=1;align=center;verticalAlign=middle;resizable=0;points=[];autosize=1;strokeColor=none;fillColor=none;" vertex="1" parent="1">
          <mxGeometry x="202" y="-1160" width="290" height="50" as="geometry" />
        </mxCell>
        <mxCell id="7LeRTyqalhS2gj-OQN5v-13" value="&lt;font style=&quot;font-size: 32px;&quot;&gt;Game Over Layout&lt;/font&gt;" style="text;html=1;align=center;verticalAlign=middle;resizable=0;points=[];autosize=1;strokeColor=none;fillColor=none;" vertex="1" parent="1">
          <mxGeometry x="186" y="275" width="290" height="50" as="geometry" />
        </mxCell>
        <mxCell id="7LeRTyqalhS2gj-OQN5v-14" value="" style="rounded=0;whiteSpace=wrap;html=1;fillColor=none;dashed=1;strokeColor=#b85450;" vertex="1" parent="1">
          <mxGeometry x="130" y="-1092" width="436" height="552" as="geometry" />
        </mxCell>
        <mxCell id="7LeRTyqalhS2gj-OQN5v-16" value="" style="rounded=0;whiteSpace=wrap;html=1;fillColor=none;dashed=1;strokeColor=#b85450;" vertex="1" parent="1">
          <mxGeometry x="150" y="-1040" width="390" height="440" as="geometry" />
        </mxCell>
        <mxCell id="7LeRTyqalhS2gj-OQN5v-19" value="" style="rounded=0;whiteSpace=wrap;html=1;fillColor=none;dashed=1;strokeColor=#b85450;" vertex="1" parent="1">
          <mxGeometry x="180" y="-750" width="320" height="110" as="geometry" />
        </mxCell>
        <mxCell id="7LeRTyqalhS2gj-OQN5v-20" value="" style="endArrow=none;html=1;rounded=0;fillColor=#f8cecc;strokeColor=#b85450;dashed=1;" edge="1" parent="1">
          <mxGeometry width="50" height="50" relative="1" as="geometry">
            <mxPoint x="274" y="-641" as="sourcePoint" />
            <mxPoint x="275" y="-749" as="targetPoint" />
          </mxGeometry>
        </mxCell>
        <mxCell id="7LeRTyqalhS2gj-OQN5v-21" value="" style="endArrow=none;html=1;rounded=0;fillColor=#f8cecc;strokeColor=#b85450;dashed=1;" edge="1" parent="1">
          <mxGeometry width="50" height="50" relative="1" as="geometry">
            <mxPoint x="180" y="-695" as="sourcePoint" />
            <mxPoint x="499" y="-696" as="targetPoint" />
          </mxGeometry>
        </mxCell>
        <mxCell id="7LeRTyqalhS2gj-OQN5v-22" value="" style="endArrow=none;html=1;rounded=0;fillColor=#f8cecc;strokeColor=#b85450;dashed=1;" edge="1" parent="1">
          <mxGeometry width="50" height="50" relative="1" as="geometry">
            <mxPoint x="150" y="-828.5" as="sourcePoint" />
            <mxPoint x="540" y="-830" as="targetPoint" />
          </mxGeometry>
        </mxCell>
        <mxCell id="7LeRTyqalhS2gj-OQN5v-23" value="" style="endArrow=none;html=1;rounded=0;fillColor=#f8cecc;strokeColor=#b85450;dashed=1;" edge="1" parent="1">
          <mxGeometry width="50" height="50" relative="1" as="geometry">
            <mxPoint x="150" y="-918.5" as="sourcePoint" />
            <mxPoint x="540" y="-920" as="targetPoint" />
          </mxGeometry>
        </mxCell>
        <mxCell id="7LeRTyqalhS2gj-OQN5v-29" value="" style="rounded=0;whiteSpace=wrap;html=1;fillColor=#CCCCCC;" vertex="1" parent="1">
          <mxGeometry x="146.5" y="465" width="373.5" height="330" as="geometry" />
        </mxCell>
        <mxCell id="7LeRTyqalhS2gj-OQN5v-24" value="" style="rounded=0;whiteSpace=wrap;html=1;fillColor=none;dashed=1;strokeColor=#b85450;" vertex="1" parent="1">
          <mxGeometry x="161" y="475" width="340" height="300" as="geometry" />
        </mxCell>
        <mxCell id="7LeRTyqalhS2gj-OQN5v-25" value="&lt;font style=&quot;font-size: 24px;&quot;&gt;Game Over&lt;/font&gt;" style="text;html=1;align=center;verticalAlign=middle;whiteSpace=wrap;rounded=0;" vertex="1" parent="1">
          <mxGeometry x="268.75" y="485" width="129" height="30" as="geometry" />
        </mxCell>
        <mxCell id="7LeRTyqalhS2gj-OQN5v-26" value="Apples Eaten:" style="text;html=1;align=center;verticalAlign=middle;whiteSpace=wrap;rounded=0;" vertex="1" parent="1">
          <mxGeometry x="204.5" y="555" width="78" height="30" as="geometry" />
        </mxCell>
        <mxCell id="7LeRTyqalhS2gj-OQN5v-27" value="Longest Length:" style="text;html=1;align=center;verticalAlign=middle;whiteSpace=wrap;rounded=0;" vertex="1" parent="1">
          <mxGeometry x="204.5" y="595" width="93" height="30" as="geometry" />
        </mxCell>
        <mxCell id="7LeRTyqalhS2gj-OQN5v-28" value="Time Lasted:" style="text;html=1;align=center;verticalAlign=middle;whiteSpace=wrap;rounded=0;" vertex="1" parent="1">
          <mxGeometry x="204.5" y="635" width="75.5" height="30" as="geometry" />
        </mxCell>
        <mxCell id="7LeRTyqalhS2gj-OQN5v-33" value="Main Menu" style="rounded=0;whiteSpace=wrap;html=1;" vertex="1" parent="1">
          <mxGeometry x="191" y="695" width="120" height="50" as="geometry" />
        </mxCell>
        <mxCell id="7LeRTyqalhS2gj-OQN5v-34" value="Play Again" style="rounded=0;whiteSpace=wrap;html=1;" vertex="1" parent="1">
          <mxGeometry x="340" y="695" width="120" height="50" as="geometry" />
        </mxCell>
        <mxCell id="7LeRTyqalhS2gj-OQN5v-35" value="" style="endArrow=none;html=1;rounded=0;fillColor=#f8cecc;strokeColor=#b85450;dashed=1;" edge="1" parent="1">
          <mxGeometry width="50" height="50" relative="1" as="geometry">
            <mxPoint x="162" y="546" as="sourcePoint" />
            <mxPoint x="502" y="546" as="targetPoint" />
          </mxGeometry>
        </mxCell>
        <mxCell id="7LeRTyqalhS2gj-OQN5v-36" value="" style="endArrow=none;html=1;rounded=0;fillColor=#f8cecc;strokeColor=#b85450;dashed=1;" edge="1" parent="1">
          <mxGeometry width="50" height="50" relative="1" as="geometry">
            <mxPoint x="161" y="675" as="sourcePoint" />
            <mxPoint x="501" y="675" as="targetPoint" />
          </mxGeometry>
        </mxCell>
        <mxCell id="7LeRTyqalhS2gj-OQN5v-37" value="" style="rounded=0;whiteSpace=wrap;html=1;fillColor=none;dashed=1;strokeColor=#b85450;" vertex="1" parent="1">
          <mxGeometry x="191" y="555" width="279" height="110" as="geometry" />
        </mxCell>
        <mxCell id="7LeRTyqalhS2gj-OQN5v-38" value="" style="rounded=0;whiteSpace=wrap;html=1;fillColor=none;dashed=1;strokeColor=#b85450;" vertex="1" parent="1">
          <mxGeometry x="183" y="685" width="287" height="70" as="geometry" />
        </mxCell>
        <mxCell id="7LeRTyqalhS2gj-OQN5v-40" value="" style="endArrow=none;html=1;rounded=0;fillColor=#f8cecc;strokeColor=#b85450;dashed=1;" edge="1" parent="1">
          <mxGeometry width="50" height="50" relative="1" as="geometry">
            <mxPoint x="191" y="591" as="sourcePoint" />
            <mxPoint x="470" y="590" as="targetPoint" />
          </mxGeometry>
        </mxCell>
        <mxCell id="7LeRTyqalhS2gj-OQN5v-41" value="" style="endArrow=none;html=1;rounded=0;fillColor=#f8cecc;strokeColor=#b85450;dashed=1;" edge="1" parent="1">
          <mxGeometry width="50" height="50" relative="1" as="geometry">
            <mxPoint x="191.5" y="630.5" as="sourcePoint" />
            <mxPoint x="470.5" y="629.5" as="targetPoint" />
          </mxGeometry>
        </mxCell>
        <mxCell id="7LeRTyqalhS2gj-OQN5v-42" value="" style="endArrow=none;html=1;rounded=0;fillColor=#f8cecc;strokeColor=#b85450;dashed=1;" edge="1" parent="1">
          <mxGeometry width="50" height="50" relative="1" as="geometry">
            <mxPoint x="320" y="665" as="sourcePoint" />
            <mxPoint x="320" y="555" as="targetPoint" />
          </mxGeometry>
        </mxCell>
        <mxCell id="7LeRTyqalhS2gj-OQN5v-43" value="" style="endArrow=none;html=1;rounded=0;fillColor=#f8cecc;strokeColor=#b85450;dashed=1;" edge="1" parent="1">
          <mxGeometry width="50" height="50" relative="1" as="geometry">
            <mxPoint x="326" y="755" as="sourcePoint" />
            <mxPoint x="326.05" y="685" as="targetPoint" />
          </mxGeometry>
        </mxCell>
        <mxCell id="7LeRTyqalhS2gj-OQN5v-44" value="" style="endArrow=none;html=1;rounded=0;fillColor=#f8cecc;strokeColor=#b85450;dashed=1;" edge="1" parent="1">
          <mxGeometry width="50" height="50" relative="1" as="geometry">
            <mxPoint x="164" y="519" as="sourcePoint" />
            <mxPoint x="504" y="519" as="targetPoint" />
          </mxGeometry>
        </mxCell>
        <mxCell id="7LeRTyqalhS2gj-OQN5v-45" value="Splash Message" style="text;html=1;align=center;verticalAlign=middle;resizable=0;points=[];autosize=1;strokeColor=none;fillColor=none;" vertex="1" parent="1">
          <mxGeometry x="267" y="517" width="110" height="30" as="geometry" />
        </mxCell>
        <mxCell id="7LeRTyqalhS2gj-OQN5v-46" value="" style="rounded=0;whiteSpace=wrap;html=1;" vertex="1" parent="1">
          <mxGeometry x="-133" y="-380" width="960" height="540" as="geometry" />
        </mxCell>
        <mxCell id="7LeRTyqalhS2gj-OQN5v-47" value="&lt;font style=&quot;font-size: 32px;&quot;&gt;Game Play Layout&lt;/font&gt;" style="text;html=1;align=center;verticalAlign=middle;resizable=0;points=[];autosize=1;strokeColor=none;fillColor=none;" vertex="1" parent="1">
          <mxGeometry x="186" y="-460" width="290" height="50" as="geometry" />
        </mxCell>
        <mxCell id="7LeRTyqalhS2gj-OQN5v-48" value="" style="rounded=0;whiteSpace=wrap;html=1;fillColor=#CCCCCC;" vertex="1" parent="1">
          <mxGeometry x="-133" y="-380" width="960" height="30" as="geometry" />
        </mxCell>
        <mxCell id="7LeRTyqalhS2gj-OQN5v-67" value="&amp;lt;Time Since Start&amp;gt;" style="text;html=1;align=center;verticalAlign=middle;whiteSpace=wrap;rounded=0;" vertex="1" parent="1">
          <mxGeometry x="647" y="-379.5" width="110" height="30" as="geometry" />
        </mxCell>
        <mxCell id="7LeRTyqalhS2gj-OQN5v-68" value="&amp;lt;Score&amp;gt;&amp;nbsp;" style="text;html=1;align=center;verticalAlign=middle;whiteSpace=wrap;rounded=0;" vertex="1" parent="1">
          <mxGeometry x="286.5" y="-380" width="80" height="30" as="geometry" />
        </mxCell>
        <mxCell id="7LeRTyqalhS2gj-OQN5v-69" value="" style="ellipse;whiteSpace=wrap;html=1;aspect=fixed;fillColor=#f8cecc;strokeColor=#b85450;" vertex="1" parent="1">
          <mxGeometry x="217" y="-375" width="20" height="20" as="geometry" />
        </mxCell>
        <mxCell id="7LeRTyqalhS2gj-OQN5v-70" value="" style="ellipse;whiteSpace=wrap;html=1;aspect=fixed;fillColor=#f8cecc;strokeColor=#b85450;" vertex="1" parent="1">
          <mxGeometry x="420" y="-375" width="20" height="20" as="geometry" />
        </mxCell>
        <mxCell id="7LeRTyqalhS2gj-OQN5v-74" value="" style="sketch=0;pointerEvents=1;shadow=0;dashed=0;html=1;strokeColor=none;fillColor=#505050;labelPosition=center;verticalLabelPosition=bottom;verticalAlign=top;outlineConnect=0;align=center;shape=mxgraph.office.concepts.clock;" vertex="1" parent="1">
          <mxGeometry x="611" y="-377" width="25" height="25" as="geometry" />
        </mxCell>
        <mxCell id="7LeRTyqalhS2gj-OQN5v-75" value="" style="sketch=0;pointerEvents=1;shadow=0;dashed=0;html=1;strokeColor=none;fillColor=#505050;labelPosition=center;verticalLabelPosition=bottom;verticalAlign=top;outlineConnect=0;align=center;shape=mxgraph.office.concepts.clock;" vertex="1" parent="1">
          <mxGeometry x="768" y="-378" width="25" height="25" as="geometry" />
        </mxCell>
        <mxCell id="7LeRTyqalhS2gj-OQN5v-76" value="" style="shape=hexagon;perimeter=hexagonPerimeter2;whiteSpace=wrap;html=1;fixedSize=1;size=10;fillColor=#d5e8d4;strokeColor=#82b366;" vertex="1" parent="1">
          <mxGeometry x="-108" y="-375" width="30" height="20" as="geometry" />
        </mxCell>
        <mxCell id="7LeRTyqalhS2gj-OQN5v-77" value="" style="shape=hexagon;perimeter=hexagonPerimeter2;whiteSpace=wrap;html=1;fixedSize=1;size=10;fillColor=#d5e8d4;strokeColor=#82b366;" vertex="1" parent="1">
          <mxGeometry x="27" y="-374.5" width="30" height="20" as="geometry" />
        </mxCell>
        <mxCell id="7LeRTyqalhS2gj-OQN5v-78" value="&amp;lt;Length&amp;gt;" style="text;html=1;align=center;verticalAlign=middle;whiteSpace=wrap;rounded=0;" vertex="1" parent="1">
          <mxGeometry x="-70" y="-379.5" width="80" height="30" as="geometry" />
        </mxCell>
        <mxCell id="7LeRTyqalhS2gj-OQN5v-79" value="Screen Resolution : 960x540" style="text;html=1;align=center;verticalAlign=middle;whiteSpace=wrap;rounded=0;strokeWidth=5;fontSize=31;" vertex="1" parent="1">
          <mxGeometry x="-700" y="-883" width="310" height="146.5" as="geometry" />
        </mxCell>
        <mxCell id="7LeRTyqalhS2gj-OQN5v-80" value="~50% opacity grey panel" style="text;html=1;align=center;verticalAlign=middle;whiteSpace=wrap;rounded=0;strokeWidth=1;fontSize=31;strokeColor=#000000;fillColor=#CCCCCC;" vertex="1" parent="1">
          <mxGeometry x="-700" y="-620" width="310" height="146.5" as="geometry" />
        </mxCell>
        <mxCell id="7LeRTyqalhS2gj-OQN5v-82" value="Container Boxes" style="text;html=1;align=center;verticalAlign=middle;whiteSpace=wrap;rounded=0;strokeWidth=2;fontSize=31;strokeColor=#b85450;dashed=1;fillColor=none;" vertex="1" parent="1">
          <mxGeometry x="-700" y="-494.5" width="310" height="145" as="geometry" />
        </mxCell>
        <mxCell id="7LeRTyqalhS2gj-OQN5v-83" value="" style="shape=hexagon;perimeter=hexagonPerimeter2;whiteSpace=wrap;html=1;fixedSize=1;size=10;fillColor=#d5e8d4;strokeColor=#82b366;" vertex="1" parent="1">
          <mxGeometry x="-690" y="-280" width="30" height="20" as="geometry" />
        </mxCell>
        <mxCell id="7LeRTyqalhS2gj-OQN5v-85" value="" style="ellipse;whiteSpace=wrap;html=1;aspect=fixed;fillColor=#f8cecc;strokeColor=#b85450;" vertex="1" parent="1">
          <mxGeometry x="-685" y="-230" width="20" height="20" as="geometry" />
        </mxCell>
        <mxCell id="7LeRTyqalhS2gj-OQN5v-86" value="Snake Body Sprite" style="text;html=1;align=center;verticalAlign=middle;resizable=0;points=[];autosize=1;strokeColor=none;fillColor=none;" vertex="1" parent="1">
          <mxGeometry x="-650" y="-285" width="120" height="30" as="geometry" />
        </mxCell>
        <mxCell id="7LeRTyqalhS2gj-OQN5v-87" value="Apple Sprite" style="text;html=1;align=center;verticalAlign=middle;resizable=0;points=[];autosize=1;strokeColor=none;fillColor=none;" vertex="1" parent="1">
          <mxGeometry x="-635" y="-235" width="90" height="30" as="geometry" />
        </mxCell>
        <mxCell id="7LeRTyqalhS2gj-OQN5v-88" value="" style="text;html=1;align=center;verticalAlign=middle;whiteSpace=wrap;rounded=0;strokeWidth=1;fontSize=31;strokeColor=#b85450;dashed=1;fillColor=none;" vertex="1" parent="1">
          <mxGeometry x="-140" y="-390" width="980" height="50" as="geometry" />
        </mxCell>
        <mxCell id="7LeRTyqalhS2gj-OQN5v-89" value="" style="endArrow=none;html=1;rounded=0;fillColor=#f8cecc;strokeColor=#b85450;dashed=1;" edge="1" parent="1">
          <mxGeometry width="50" height="50" relative="1" as="geometry">
            <mxPoint x="121" y="-340" as="sourcePoint" />
            <mxPoint x="121" y="-393" as="targetPoint" />
          </mxGeometry>
        </mxCell>
        <mxCell id="7LeRTyqalhS2gj-OQN5v-90" value="" style="endArrow=none;html=1;rounded=0;fillColor=#f8cecc;strokeColor=#b85450;dashed=1;" edge="1" parent="1">
          <mxGeometry width="50" height="50" relative="1" as="geometry">
            <mxPoint x="530" y="-340" as="sourcePoint" />
            <mxPoint x="530" y="-393" as="targetPoint" />
          </mxGeometry>
        </mxCell>
        <mxCell id="7LeRTyqalhS2gj-OQN5v-91" value="" style="text;html=1;align=center;verticalAlign=middle;whiteSpace=wrap;rounded=0;strokeWidth=1;fontSize=31;strokeColor=#b85450;dashed=1;fillColor=none;" vertex="1" parent="1">
          <mxGeometry x="-120" y="-384.5" width="193" height="39.5" as="geometry" />
        </mxCell>
        <mxCell id="7LeRTyqalhS2gj-OQN5v-92" value="" style="text;html=1;align=center;verticalAlign=middle;whiteSpace=wrap;rounded=0;strokeWidth=1;fontSize=31;strokeColor=#b85450;dashed=1;fillColor=none;" vertex="1" parent="1">
          <mxGeometry x="204.5" y="-384.75" width="255.5" height="39.5" as="geometry" />
        </mxCell>
        <mxCell id="7LeRTyqalhS2gj-OQN5v-93" value="" style="text;html=1;align=center;verticalAlign=middle;whiteSpace=wrap;rounded=0;strokeWidth=1;fontSize=31;strokeColor=#b85450;dashed=1;fillColor=none;" vertex="1" parent="1">
          <mxGeometry x="578" y="-385" width="255.5" height="39.5" as="geometry" />
        </mxCell>
        <mxCell id="7LeRTyqalhS2gj-OQN5v-94" value="" style="endArrow=none;html=1;rounded=0;fillColor=#f8cecc;strokeColor=#b85450;dashed=1;" edge="1" parent="1">
          <mxGeometry width="50" height="50" relative="1" as="geometry">
            <mxPoint x="-70" y="-350" as="sourcePoint" />
            <mxPoint x="-70" y="-385" as="targetPoint" />
          </mxGeometry>
        </mxCell>
        <mxCell id="7LeRTyqalhS2gj-OQN5v-95" value="" style="endArrow=none;html=1;rounded=0;fillColor=#f8cecc;strokeColor=#b85450;dashed=1;" edge="1" parent="1">
          <mxGeometry width="50" height="50" relative="1" as="geometry">
            <mxPoint x="10" y="-348" as="sourcePoint" />
            <mxPoint x="10" y="-383" as="targetPoint" />
          </mxGeometry>
        </mxCell>
        <mxCell id="7LeRTyqalhS2gj-OQN5v-96" value="" style="endArrow=none;html=1;rounded=0;fillColor=#f8cecc;strokeColor=#b85450;dashed=1;" edge="1" parent="1">
          <mxGeometry width="50" height="50" relative="1" as="geometry">
            <mxPoint x="250.68" y="-350" as="sourcePoint" />
            <mxPoint x="250.68" y="-385" as="targetPoint" />
          </mxGeometry>
        </mxCell>
        <mxCell id="7LeRTyqalhS2gj-OQN5v-97" value="" style="endArrow=none;html=1;rounded=0;fillColor=#f8cecc;strokeColor=#b85450;dashed=1;" edge="1" parent="1">
          <mxGeometry width="50" height="50" relative="1" as="geometry">
            <mxPoint x="407" y="-350" as="sourcePoint" />
            <mxPoint x="407" y="-385" as="targetPoint" />
          </mxGeometry>
        </mxCell>
        <mxCell id="7LeRTyqalhS2gj-OQN5v-98" value="" style="endArrow=none;html=1;rounded=0;fillColor=#f8cecc;strokeColor=#b85450;dashed=1;" edge="1" parent="1">
          <mxGeometry width="50" height="50" relative="1" as="geometry">
            <mxPoint x="647" y="-349.5" as="sourcePoint" />
            <mxPoint x="647" y="-384.5" as="targetPoint" />
          </mxGeometry>
        </mxCell>
        <mxCell id="7LeRTyqalhS2gj-OQN5v-99" value="" style="endArrow=none;html=1;rounded=0;fillColor=#f8cecc;strokeColor=#b85450;dashed=1;" edge="1" parent="1">
          <mxGeometry width="50" height="50" relative="1" as="geometry">
            <mxPoint x="760" y="-350" as="sourcePoint" />
            <mxPoint x="760" y="-385" as="targetPoint" />
          </mxGeometry>
        </mxCell>
        <mxCell id="7LeRTyqalhS2gj-OQN5v-100" value="" style="rounded=0;whiteSpace=wrap;html=1;fillColor=none;dashed=1;strokeColor=#b85450;" vertex="1" parent="1">
          <mxGeometry x="140" y="460" width="385" height="341" as="geometry" />
        </mxCell>
        <mxCell id="7LeRTyqalhS2gj-OQN5v-101" value="" style="curved=1;endArrow=classic;html=1;rounded=0;" edge="1" parent="1">
          <mxGeometry width="50" height="50" relative="1" as="geometry">
            <mxPoint x="-320" y="-250" as="sourcePoint" />
            <mxPoint x="-270" y="-560" as="targetPoint" />
            <Array as="points">
              <mxPoint x="-250" y="-340" />
              <mxPoint x="-340" y="-470" />
            </Array>
          </mxGeometry>
        </mxCell>
        <mxCell id="7LeRTyqalhS2gj-OQN5v-102" value="Background Snake Path" style="text;html=1;align=center;verticalAlign=middle;resizable=0;points=[];autosize=1;strokeColor=none;fillColor=none;strokeWidth=7;fontSize=17;" vertex="1" parent="1">
          <mxGeometry x="-370" y="-600" width="210" height="30" as="geometry" />
        </mxCell>
      </root>
    </mxGraphModel>
  </diagram>
</mxfile>
